<svg width="20" height="20" viewBox="0 0 20 20" fill="none" xmlns="http://www.w3.org/2000/svg">
<path d="M10 6.25C10.1658 6.25 10.3247 6.31585 10.4419 6.43306C10.5592 6.55027 10.625 6.70924 10.625 6.875V9.375H13.125C13.2908 9.375 13.4497 9.44085 13.5669 9.55806C13.6842 9.67527 13.75 9.83424 13.75 10C13.75 10.1658 13.6842 10.3247 13.5669 10.4419C13.4497 10.5592 13.2908 10.625 13.125 10.625H10.625V13.125C10.625 13.2908 10.5592 13.4497 10.4419 13.5669C10.3247 13.6842 10.1658 13.75 10 13.75C9.83424 13.75 9.67527 13.6842 9.55806 13.5669C9.44085 13.4497 9.375 13.2908 9.375 13.125V10.625H6.875C6.70924 10.625 6.55027 10.5592 6.43306 10.4419C6.31585 10.3247 6.25 10.1658 6.25 10C6.25 9.83424 6.31585 9.67527 6.43306 9.55806C6.55027 9.44085 6.70924 9.375 6.875 9.375H9.375V6.875C9.375 6.70924 9.44085 6.55027 9.55806 6.43306C9.67527 6.31585 9.83424 6.25 10 6.25V6.25ZM2.5 10C2.5 5.85813 5.85813 2.5 10 2.5C14.1419 2.5 17.5 5.85813 17.5 10C17.5 14.1419 14.1419 17.5 10 17.5C5.85813 17.5 2.5 14.1419 2.5 10ZM10 3.75C6.54813 3.75 3.75 6.54813 3.75 10C3.75 13.4519 6.54813 16.25 10 16.25C13.4519 16.25 16.25 13.4519 16.25 10C16.25 6.54813 13.4519 3.75 10 3.75Z" fill="#49AA26"/>
</svg>
