<svg width="28" height="28" viewBox="0 0 28 28" fill="none" xmlns="http://www.w3.org/2000/svg">
<path d="M19.1975 8.69748C19.444 8.46278 19.7721 8.33303 20.1124 8.33561C20.4528 8.33818 20.7788 8.47288 21.0218 8.71128C21.2647 8.94968 21.4055 9.27313 21.4145 9.61338C21.4235 9.95363 21.3 10.2841 21.07 10.535L14.0875 19.2675C13.9674 19.3968 13.8225 19.5006 13.6614 19.5726C13.5003 19.6447 13.3264 19.6835 13.1499 19.6867C12.9735 19.69 12.7982 19.6577 12.6346 19.5916C12.4709 19.5256 12.3223 19.4273 12.1975 19.3025L7.56699 14.672C7.43804 14.5518 7.33461 14.4069 7.26288 14.2459C7.19114 14.0849 7.15257 13.9111 7.14946 13.7349C7.14635 13.5587 7.17877 13.3836 7.24478 13.2202C7.31079 13.0568 7.40904 12.9083 7.53368 12.7837C7.65831 12.659 7.80677 12.5608 7.9702 12.4948C8.13363 12.4288 8.30868 12.3963 8.48491 12.3994C8.66114 12.4026 8.83494 12.4411 8.99594 12.5129C9.15693 12.5846 9.30183 12.688 9.42199 12.817L13.0865 16.4797L19.1642 8.73598C19.1752 8.7225 19.1869 8.70965 19.1992 8.69748H19.1975Z" fill="white"/>
</svg>
