<svg width="28" height="28" viewBox="0 0 28 28" fill="none" xmlns="http://www.w3.org/2000/svg">
<path d="M15.2522 14L19.0322 10.22C19.1596 10.0712 19.2262 9.87981 19.2186 9.68407C19.211 9.48832 19.1299 9.30263 18.9914 9.16411C18.8529 9.02559 18.6672 8.94445 18.4714 8.93689C18.2757 8.92933 18.0843 8.99591 17.9355 9.12333L14.1555 12.8644L10.3522 9.06111C10.2034 8.93369 10.012 8.8671 9.81623 8.87466C9.62048 8.88223 9.43479 8.96337 9.29627 9.10189C9.15776 9.24041 9.07661 9.42609 9.06905 9.62184C9.06149 9.81759 9.12807 10.009 9.25549 10.1578L13.051 14L9.33327 17.6711C9.25185 17.7408 9.18572 17.8266 9.13904 17.9231C9.09235 18.0196 9.06612 18.1247 9.06198 18.2318C9.05784 18.339 9.07589 18.4458 9.115 18.5456C9.1541 18.6454 9.21341 18.736 9.28921 18.8118C9.36501 18.8876 9.45565 18.9469 9.55546 18.986C9.65527 19.0251 9.76208 19.0432 9.8692 19.0391C9.97631 19.0349 10.0814 19.0087 10.1779 18.962C10.2744 18.9153 10.3602 18.8492 10.4299 18.7678L14.1399 15.0578L17.8266 18.7444C17.9754 18.8719 18.1668 18.9384 18.3625 18.9309C18.5583 18.9233 18.744 18.8422 18.8825 18.7037C19.021 18.5651 19.1021 18.3795 19.1097 18.1837C19.1173 17.988 19.0507 17.7966 18.9233 17.6478L15.2522 14Z" fill="#F8A8C5"/>
<path d="M14 26.4444C11.5387 26.4444 9.13271 25.7146 7.08623 24.3472C5.03975 22.9798 3.44472 21.0362 2.50282 18.7623C1.56093 16.4883 1.31449 13.9862 1.79466 11.5722C2.27484 9.15822 3.46005 6.94083 5.20044 5.20044C6.94083 3.46005 9.15822 2.27484 11.5722 1.79466C13.9862 1.31449 16.4883 1.56093 18.7623 2.50282C21.0362 3.44472 22.9798 5.03975 24.3472 7.08623C25.7146 9.13271 26.4444 11.5387 26.4444 14C26.4444 17.3005 25.1333 20.4658 22.7995 22.7995C20.4658 25.1333 17.3005 26.4444 14 26.4444V26.4444ZM14 3.1111C11.8464 3.1111 9.74112 3.74973 7.95045 4.94621C6.15978 6.1427 4.76412 7.84331 3.93997 9.833C3.11582 11.8227 2.90018 14.0121 3.32033 16.1243C3.74048 18.2365 4.77755 20.1768 6.30038 21.6996C7.82322 23.2224 9.76344 24.2595 11.8757 24.6797C13.9879 25.0998 16.1773 24.8842 18.167 24.06C20.1567 23.2359 21.8573 21.8402 23.0538 20.0495C24.2503 18.2589 24.8889 16.1536 24.8889 14C24.8889 11.1121 23.7417 8.34245 21.6996 6.30038C19.6575 4.25832 16.8879 3.1111 14 3.1111V3.1111Z" fill="#F8A8C5"/>
</svg>
