<svg width="20" height="20" viewBox="0 0 20 20" fill="none" xmlns="http://www.w3.org/2000/svg">
<path d="M12.5475 11.8192C12.9308 13.0083 13.125 14.0492 13.125 14.9467C13.125 16.9458 12.3425 18.4867 11.0416 18.4867C10.375 18.4867 10.1433 18.1117 9.88915 17.1975L9.66415 16.3467C9.58082 16.0475 9.43415 15.5383 9.22582 14.8208C9.22017 14.8017 9.21175 14.7834 9.20082 14.7667L6.81248 11.0283C6.2473 10.1441 5.4134 9.46439 4.43332 9.08917L3.38582 8.68917C3.06516 8.56661 2.79801 8.33487 2.6314 8.03473C2.46479 7.73459 2.4094 7.38529 2.47498 7.04833L3.04665 4.09917C3.11505 3.74746 3.2828 3.42271 3.53003 3.16338C3.77725 2.90404 4.09361 2.72097 4.44165 2.63583L11.3166 0.950832C12.3301 0.702563 13.4005 0.864449 14.2952 1.40128C15.1898 1.93812 15.8364 2.80647 16.0941 3.8175L17.4058 8.96167C17.492 9.3 17.4998 9.65355 17.4285 9.99534C17.3572 10.3371 17.2088 10.6581 16.9945 10.9338C16.7803 11.2095 16.5059 11.4325 16.1923 11.586C15.8787 11.7394 15.5341 11.8192 15.185 11.8192H12.5475V11.8192Z" fill="#E92929"/>
</svg>
