<svg width="129" height="18" viewBox="0 0 129 18" fill="none" xmlns="http://www.w3.org/2000/svg">
<path d="M0 10.2468C0 9.09907 0.228623 8.08268 0.68587 7.19767C1.15656 6.31265 1.78864 5.62815 2.5821 5.14415C3.389 4.64633 4.28332 4.39742 5.26506 4.39742C5.99127 4.39742 6.70404 4.56336 7.40336 4.89524C8.11612 5.2133 8.68096 5.64198 9.09786 6.18128V0.663762H11.4177V16.0133H9.09786V14.2916C8.7213 14.8448 8.19681 15.3011 7.52439 15.6606C6.86542 16.0202 6.10559 16.1999 5.24489 16.1999C4.2766 16.1999 3.389 15.951 2.5821 15.4532C1.78864 14.9416 1.15656 14.2363 0.68587 13.3375C0.228623 12.4248 0 11.3946 0 10.2468ZM9.09786 10.2883C9.09786 9.50009 8.93648 8.81559 8.61372 8.23479C8.3044 7.654 7.89423 7.2115 7.38319 6.90727C6.87214 6.60305 6.32076 6.45093 5.72903 6.45093C5.1373 6.45093 4.58591 6.60305 4.07487 6.90727C3.56383 7.19767 3.14693 7.63326 2.82417 8.21405C2.51486 8.78102 2.3602 9.45861 2.3602 10.2468C2.3602 11.035 2.51486 11.7265 2.82417 12.3211C3.14693 12.9157 3.56383 13.372 4.07487 13.6901C4.59936 13.9943 5.15075 14.1464 5.72903 14.1464C6.32076 14.1464 6.87214 13.9943 7.38319 13.6901C7.89423 13.3859 8.3044 12.9434 8.61372 12.3626C8.93648 11.7679 9.09786 11.0765 9.09786 10.2883Z" fill="#92D17D"/>
<path d="M24.6254 10.0187C24.6254 10.4473 24.5985 10.8345 24.5447 11.1802H16.0521C16.1193 12.0929 16.4488 12.8258 17.0405 13.3789C17.6323 13.9321 18.3585 14.2087 19.2192 14.2087C20.4564 14.2087 21.3306 13.6763 21.8416 12.6115H24.3228C23.9866 13.6624 23.3747 14.5267 22.4871 15.2043C21.613 15.8681 20.5237 16.1999 19.2192 16.1999C18.1567 16.1999 17.2019 15.9579 16.3546 15.4739C15.5208 14.9761 14.8619 14.2847 14.3777 13.3997C13.907 12.5008 13.6717 11.4637 13.6717 10.2883C13.6717 9.1129 13.9003 8.08268 14.3576 7.19767C14.8283 6.29882 15.4805 5.6074 16.3143 5.12341C17.1616 4.63942 18.1298 4.39742 19.2192 4.39742C20.2681 4.39742 21.2028 4.6325 22.0232 5.10267C22.8435 5.57283 23.4823 6.23659 23.9396 7.09395C24.3968 7.93748 24.6254 8.91239 24.6254 10.0187ZM22.2249 9.27192C22.2114 8.40074 21.9088 7.7024 21.3171 7.17692C20.7254 6.65145 19.9924 6.38871 19.1183 6.38871C18.3248 6.38871 17.6457 6.65145 17.0809 7.17692C16.516 7.68857 16.1798 8.38691 16.0722 9.27192H22.2249Z" fill="#92D17D"/>
<path d="M31.1853 13.8975L34.3323 4.58411H36.7731L32.5369 16.0133H29.7934L25.5773 4.58411H28.0384L31.1853 13.8975Z" fill="#92D17D"/>
<path d="M39.4394 16.1585C39.0225 16.1585 38.6728 16.0133 38.3904 15.7229C38.108 15.4325 37.9668 15.0729 37.9668 14.6442C37.9668 14.2156 38.108 13.856 38.3904 13.5656C38.6728 13.2752 39.0225 13.13 39.4394 13.13C39.8428 13.13 40.1858 13.2752 40.4682 13.5656C40.7506 13.856 40.8918 14.2156 40.8918 14.6442C40.8918 15.0729 40.7506 15.4325 40.4682 15.7229C40.1858 16.0133 39.8428 16.1585 39.4394 16.1585Z" fill="#92D17D"/>
<path d="M48.0372 6.51316H45.9796V16.0133H43.6597V6.51316H42.3485V4.58411H43.6597V3.77514C43.6597 2.46145 43.9959 1.50729 44.6684 0.912672C45.3542 0.304224 46.4234 0 47.8758 0V1.97054C47.1765 1.97054 46.6856 2.10883 46.4032 2.38539C46.1208 2.64813 45.9796 3.11138 45.9796 3.77514V4.58411H48.0372V6.51316Z" fill="#92D17D"/>
<path d="M51.2453 3.0699C50.8284 3.0699 50.4787 2.9247 50.1963 2.6343C49.9139 2.34391 49.7727 1.98437 49.7727 1.55569C49.7727 1.12701 49.9139 0.767474 50.1963 0.477079C50.4787 0.186683 50.8284 0.0414846 51.2453 0.0414846C51.6487 0.0414846 51.9917 0.186683 52.2741 0.477079C52.5565 0.767474 52.6977 1.12701 52.6977 1.55569C52.6977 1.98437 52.5565 2.34391 52.2741 2.6343C51.9917 2.9247 51.6487 3.0699 51.2453 3.0699ZM52.3749 4.58411V16.0133H50.0753V4.58411H52.3749Z" fill="#92D17D"/>
<path d="M61.0022 4.39742C61.8764 4.39742 62.6564 4.5841 63.3422 4.95747C64.0415 5.33084 64.5862 5.88397 64.9762 6.61688C65.3662 7.34978 65.5612 8.23479 65.5612 9.27192V16.0133H63.2817V9.62455C63.2817 8.60125 63.0329 7.81994 62.5353 7.28064C62.0377 6.7275 61.3586 6.45093 60.4979 6.45093C59.6372 6.45093 58.9513 6.7275 58.4403 7.28064C57.9427 7.81994 57.6939 8.60125 57.6939 9.62455V16.0133H55.3942V4.58411H57.6939V5.89089C58.0704 5.42072 58.5479 5.05427 59.1262 4.79153C59.7179 4.52879 60.3432 4.39742 61.0022 4.39742Z" fill="#92D17D"/>
<path d="M67.7281 10.2468C67.7281 9.09907 67.9567 8.08268 68.4139 7.19767C68.8846 6.31265 69.5167 5.62815 70.3101 5.14415C71.1171 4.64633 72.0046 4.39742 72.9729 4.39742C73.8471 4.39742 74.6069 4.57719 75.2524 4.93673C75.9114 5.28244 76.4359 5.71803 76.8259 6.24351V4.58411H79.1458V16.0133H76.8259V14.3124C76.4359 14.8517 75.9047 15.3011 75.2323 15.6606C74.5599 16.0202 73.7933 16.1999 72.9326 16.1999C71.9777 16.1999 71.1036 15.951 70.3101 15.4532C69.5167 14.9416 68.8846 14.2363 68.4139 13.3375C67.9567 12.4248 67.7281 11.3946 67.7281 10.2468ZM76.8259 10.2883C76.8259 9.50009 76.6645 8.81559 76.3418 8.23479C76.0325 7.654 75.6223 7.2115 75.1112 6.90727C74.6002 6.60305 74.0488 6.45093 73.4571 6.45093C72.8653 6.45093 72.314 6.60305 71.8029 6.90727C71.2919 7.19767 70.875 7.63326 70.5522 8.21405C70.2429 8.78102 70.0882 9.45861 70.0882 10.2468C70.0882 11.035 70.2429 11.7265 70.5522 12.3211C70.875 12.9157 71.2919 13.372 71.8029 13.6901C72.3274 13.9943 72.8788 14.1464 73.4571 14.1464C74.0488 14.1464 74.6002 13.9943 75.1112 13.6901C75.6223 13.3859 76.0325 12.9434 76.3418 12.3626C76.6645 11.7679 76.8259 11.0765 76.8259 10.2883Z" fill="#92D17D"/>
<path d="M87.7743 4.39742C88.6484 4.39742 89.4285 4.5841 90.1143 4.95747C90.8136 5.33084 91.3583 5.88397 91.7483 6.61688C92.1383 7.34978 92.3333 8.23479 92.3333 9.27192V16.0133H90.0538V9.62455C90.0538 8.60125 89.805 7.81994 89.3074 7.28064C88.8098 6.7275 88.1307 6.45093 87.27 6.45093C86.4093 6.45093 85.7234 6.7275 85.2124 7.28064C84.7148 7.81994 84.466 8.60125 84.466 9.62455V16.0133H82.1663V4.58411H84.466V5.89089C84.8425 5.42072 85.32 5.05427 85.8982 4.79153C86.49 4.52879 87.1153 4.39742 87.7743 4.39742Z" fill="#92D17D"/>
<path d="M94.5001 10.2883C94.5001 9.1129 94.7288 8.08268 95.186 7.19767C95.6567 6.29882 96.3022 5.6074 97.1226 5.12341C97.9429 4.63942 98.8843 4.39742 99.9467 4.39742C101.292 4.39742 102.401 4.7293 103.275 5.39306C104.163 6.043 104.761 6.97641 105.071 8.19331H102.589C102.388 7.62635 102.065 7.18384 101.621 6.86579C101.177 6.54773 100.619 6.38871 99.9467 6.38871C99.0053 6.38871 98.2522 6.73442 97.6874 7.42583C97.136 8.10342 96.8603 9.05758 96.8603 10.2883C96.8603 11.519 97.136 12.4801 97.6874 13.1715C98.2522 13.8629 99.0053 14.2087 99.9467 14.2087C101.278 14.2087 102.159 13.6071 102.589 12.404H105.071C104.748 13.5656 104.143 14.4921 103.255 15.1836C102.367 15.8611 101.265 16.1999 99.9467 16.1999C98.8843 16.1999 97.9429 15.9579 97.1226 15.4739C96.3022 14.9761 95.6567 14.2847 95.186 13.3997C94.7288 12.5008 94.5001 11.4637 94.5001 10.2883Z" fill="#92D17D"/>
<path d="M117.55 10.0187C117.55 10.4473 117.523 10.8345 117.469 11.1802H108.976C109.043 12.0929 109.373 12.8258 109.965 13.3789C110.556 13.9321 111.283 14.2087 112.143 14.2087C113.381 14.2087 114.255 13.6763 114.766 12.6115H117.247C116.911 13.6624 116.299 14.5267 115.411 15.2043C114.537 15.8681 113.448 16.1999 112.143 16.1999C111.081 16.1999 110.126 15.9579 109.279 15.4739C108.445 14.9761 107.786 14.2847 107.302 13.3997C106.831 12.5008 106.596 11.4637 106.596 10.2883C106.596 9.1129 106.824 8.08268 107.282 7.19767C107.752 6.29882 108.405 5.6074 109.238 5.12341C110.086 4.63942 111.054 4.39742 112.143 4.39742C113.192 4.39742 114.127 4.6325 114.947 5.10267C115.768 5.57283 116.406 6.23659 116.864 7.09395C117.321 7.93748 117.55 8.91239 117.55 10.0187ZM115.149 9.27192C115.136 8.40074 114.833 7.7024 114.241 7.17692C113.65 6.65145 112.917 6.38871 112.042 6.38871C111.249 6.38871 110.57 6.65145 110.005 7.17692C109.44 7.68857 109.104 8.38691 108.996 9.27192H115.149Z" fill="#92D17D"/>
<path d="M39.4396 16.1585C39.0227 16.1585 38.6731 16.0133 38.3907 15.7229C38.1082 15.4325 37.967 15.073 37.967 14.6443C37.967 14.2156 38.1082 13.8561 38.3907 13.5657C38.6731 13.2753 39.0227 13.1301 39.4396 13.1301C39.8431 13.1301 40.186 13.2753 40.4684 13.5657C40.7509 13.8561 40.8921 14.2156 40.8921 14.6443C40.8921 15.073 40.7509 15.4325 40.4684 15.7229C40.186 16.0133 39.8431 16.1585 39.4396 16.1585Z" fill="#849E90"/>
<path d="M128.999 12.9937C128.999 13.5792 128.83 14.1296 128.49 14.6449C128.164 15.1601 127.676 15.5934 127.024 15.9447C126.386 16.2961 125.626 16.5068 124.744 16.5771V18H123.421V16.5771C122.145 16.4717 121.113 16.1263 120.326 15.5407C119.539 14.9552 119.145 14.1823 119.145 13.222H121.629C121.67 13.6787 121.839 14.0593 122.138 14.3638C122.437 14.6566 122.864 14.8439 123.421 14.9259V11.0614C122.511 10.8623 121.771 10.6632 121.201 10.4642C120.631 10.2534 120.143 9.92547 119.736 9.48047C119.342 9.03546 119.145 8.42651 119.145 7.65361C119.145 6.68163 119.539 5.87945 120.326 5.24707C121.113 4.60299 122.145 4.22825 123.421 4.12285V2.70001H124.744V4.12285C125.938 4.21654 126.895 4.54444 127.615 5.10655C128.348 5.65695 128.762 6.41814 128.857 7.39012H126.373C126.332 7.02709 126.169 6.70505 125.884 6.42399C125.599 6.13123 125.219 5.93215 124.744 5.82675V9.621C125.653 9.80837 126.393 10.0074 126.963 10.2182C127.533 10.4173 128.015 10.7394 128.409 11.1844C128.802 11.6177 128.999 12.2208 128.999 12.9937ZM121.507 7.54821C121.507 8.02835 121.67 8.40309 121.995 8.67243C122.335 8.94178 122.81 9.15843 123.421 9.32237V5.77405C122.837 5.83261 122.369 6.01412 122.016 6.3186C121.676 6.62307 121.507 7.03295 121.507 7.54821ZM124.744 14.9259C125.341 14.8439 125.81 14.639 126.149 14.3111C126.488 13.9715 126.658 13.5675 126.658 13.0991C126.658 12.6306 126.488 12.2676 126.149 12.01C125.823 11.7406 125.355 11.524 124.744 11.36V14.9259Z" fill="#849E90"/>
</svg>
