<svg width="15" height="15" viewBox="0 0 15 15" fill="none" xmlns="http://www.w3.org/2000/svg">
<path d="M0.9375 0.9375V13.5938C0.9375 13.7181 0.986886 13.8373 1.07479 13.9252C1.1627 14.0131 1.28193 14.0625 1.40625 14.0625H14.0625" stroke="#84B98A" stroke-linecap="round" stroke-linejoin="round"/>
<path d="M4.57031 6.5625H3.39844C3.07483 6.5625 2.8125 6.82483 2.8125 7.14844V11.6016C2.8125 11.9252 3.07483 12.1875 3.39844 12.1875H4.57031C4.89392 12.1875 5.15625 11.9252 5.15625 11.6016V7.14844C5.15625 6.82483 4.89392 6.5625 4.57031 6.5625Z" stroke="#84B98A" stroke-linecap="round" stroke-linejoin="round"/>
<path d="M8.78906 5.15625H7.61719C7.29358 5.15625 7.03125 5.41858 7.03125 5.74219V11.6016C7.03125 11.9252 7.29358 12.1875 7.61719 12.1875H8.78906C9.11267 12.1875 9.375 11.9252 9.375 11.6016V5.74219C9.375 5.41858 9.11267 5.15625 8.78906 5.15625Z" stroke="#84B98A" stroke-linecap="round" stroke-linejoin="round"/>
<path d="M12.7578 3H11.5859C11.2623 3 11 3.26233 11 3.58594V11.3203C11 11.6439 11.2623 11.9062 11.5859 11.9062H12.7578C13.0814 11.9062 13.3438 11.6439 13.3438 11.3203V3.58594C13.3438 3.26233 13.0814 3 12.7578 3Z" stroke="#84B98A" stroke-linecap="round" stroke-linejoin="round"/>
</svg>
