<svg width="16" height="16" viewBox="0 0 16 16" fill="none" xmlns="http://www.w3.org/2000/svg">
<path d="M3.25 15.5H2.25C2.05109 15.5 1.86032 15.421 1.71967 15.2803C1.57902 15.1397 1.5 14.9489 1.5 14.75V10.25C1.5 10.0511 1.57902 9.86032 1.71967 9.71967C1.86032 9.57902 2.05109 9.5 2.25 9.5H3.25C3.44891 9.5 3.63968 9.57902 3.78033 9.71967C3.92098 9.86032 4 10.0511 4 10.25V14.75C4 14.9489 3.92098 15.1397 3.78033 15.2803C3.63968 15.421 3.44891 15.5 3.25 15.5V15.5Z" fill="#84B98A"/>
<path d="M10.25 15.5H9.25C9.05109 15.5 8.86032 15.421 8.71967 15.2803C8.57902 15.1397 8.5 14.9489 8.5 14.75V7.25C8.5 7.05109 8.57902 6.86032 8.71967 6.71967C8.86032 6.57902 9.05109 6.5 9.25 6.5H10.25C10.4489 6.5 10.6397 6.57902 10.7803 6.71967C10.921 6.86032 11 7.05109 11 7.25V14.75C11 14.9489 10.921 15.1397 10.7803 15.2803C10.6397 15.421 10.4489 15.5 10.25 15.5V15.5Z" fill="#84B98A"/>
<path d="M13.75 15.5H12.75C12.5511 15.5 12.3603 15.421 12.2197 15.2803C12.079 15.1397 12 14.9489 12 14.75V3.75C12 3.55109 12.079 3.36032 12.2197 3.21967C12.3603 3.07902 12.5511 3 12.75 3H13.75C13.9489 3 14.1397 3.07902 14.2803 3.21967C14.421 3.36032 14.5 3.55109 14.5 3.75V14.75C14.5 14.9489 14.421 15.1397 14.2803 15.2803C14.1397 15.421 13.9489 15.5 13.75 15.5V15.5Z" fill="#84B98A"/>
<path d="M6.75 15.5H5.75C5.55109 15.5 5.36032 15.421 5.21967 15.2803C5.07902 15.1397 5 14.9489 5 14.75V1.25C5 1.05109 5.07902 0.860322 5.21967 0.71967C5.36032 0.579018 5.55109 0.5 5.75 0.5H6.75C6.94891 0.5 7.13968 0.579018 7.28033 0.71967C7.42098 0.860322 7.5 1.05109 7.5 1.25V14.75C7.5 14.9489 7.42098 15.1397 7.28033 15.2803C7.13968 15.421 6.94891 15.5 6.75 15.5V15.5Z" fill="#84B98A"/>
</svg>
