<svg width="20" height="20" viewBox="0 0 20 20" fill="none" xmlns="http://www.w3.org/2000/svg">
<path d="M13.125 6.875H14.6875C15.1019 6.875 15.4993 7.03962 15.7924 7.33265C16.0854 7.62567 16.25 8.0231 16.25 8.4375V16.5625C16.25 16.9769 16.0854 17.3743 15.7924 17.6674C15.4993 17.9604 15.1019 18.125 14.6875 18.125H5.3125C4.8981 18.125 4.50067 17.9604 4.20765 17.6674C3.91462 17.3743 3.75 16.9769 3.75 16.5625V8.4375C3.75 8.0231 3.91462 7.62567 4.20765 7.33265C4.50067 7.03962 4.8981 6.875 5.3125 6.875H6.875" stroke="#969CB2" stroke-linecap="round" stroke-linejoin="round"/>
<path d="M6.875 10.625L10 13.75L13.125 10.625" stroke="#969CB2" stroke-linecap="round" stroke-linejoin="round"/>
<path d="M10 1.875V13.125" stroke="#969CB2" stroke-linecap="round" stroke-linejoin="round"/>
</svg>
