<svg width="20" height="20" viewBox="0 0 20 20" fill="none" xmlns="http://www.w3.org/2000/svg">
<path d="M12.5475 7.50332C12.9308 6.31415 13.125 5.27332 13.125 4.37582C13.125 2.37665 12.3425 0.835815 11.0416 0.835815C10.3358 0.835815 10.1175 1.25665 9.84414 2.29165C9.85831 2.23748 9.70831 2.81998 9.66497 2.97582C9.58081 3.27582 9.43414 3.78415 9.22581 4.50165C9.22015 4.52082 9.21173 4.53907 9.20081 4.55582L6.81247 8.29415C6.24733 9.17845 5.41342 9.85814 4.43331 10.2333L3.38581 10.6341C3.06547 10.7568 2.79863 10.9885 2.63219 11.2885C2.46576 11.5884 2.41038 11.9374 2.47581 12.2741L3.04747 15.2225C3.11567 15.5742 3.28323 15.8991 3.53031 16.1586C3.77739 16.4181 4.09364 16.6013 4.44164 16.6866L11.3166 18.3716C12.33 18.6199 13.4005 18.458 14.2952 17.9212C15.1898 17.3844 15.8364 16.516 16.0941 15.505L17.4058 10.3608C17.492 10.0225 17.4998 9.66893 17.4285 9.32714C17.3572 8.98535 17.2088 8.66437 16.9945 8.38869C16.7803 8.11302 16.5059 7.88994 16.1923 7.7365C15.8786 7.58306 15.5341 7.5033 15.185 7.50332H12.5475V7.50332Z" fill="#49AA26"/>
</svg>
