<svg width="18" height="18" viewBox="0 0 18 18" fill="none" xmlns="http://www.w3.org/2000/svg">
<path d="M9.05383 1.50003C8.06854 1.49741 7.0925 1.69021 6.1822 2.06728C5.27191 2.44435 4.44543 2.9982 3.75058 3.69678C2.33383 5.11353 1.55383 6.99753 1.55383 9.00003C1.55383 11.0025 2.33383 12.8865 3.75058 14.3033C5.16733 15.72 7.05133 16.5 9.05383 16.5C11.0563 16.5 12.9403 15.72 14.3571 14.3033C15.7738 12.8865 16.5538 11.0025 16.5538 9.00003C16.5538 6.99753 15.7738 5.11353 14.3571 3.69678C13.6622 2.9982 12.8358 2.44435 11.9255 2.06728C11.0152 1.69021 10.0391 1.49741 9.05383 1.50003V1.50003ZM13.2966 13.2428C12.1633 14.376 10.6566 15 9.05383 15C7.45108 15 5.94433 14.376 4.81108 13.2428C3.67783 12.1095 3.05383 10.6028 3.05383 9.00003C3.05383 7.39728 3.67783 5.89053 4.81108 4.75728C5.75136 3.8135 6.98138 3.21289 8.30383 3.05178V9.00003C8.30383 9.19894 8.38285 9.3897 8.5235 9.53036C8.66416 9.67101 8.85492 9.75003 9.05383 9.75003H15.0021C14.841 11.0725 14.2404 12.3025 13.2966 13.2428ZM9.80383 8.25003V3.04653C11.1267 3.21009 12.3564 3.81244 13.2966 4.75728C14.2419 5.69705 14.8444 6.92702 15.0073 8.25003H9.80383Z" fill="#BB6BD9"/>
</svg>
