<svg width="64" height="64" viewBox="0 0 64 64" fill="none" xmlns="http://www.w3.org/2000/svg">
<path fill-rule="evenodd" clip-rule="evenodd" d="M32 3.74194C26.5924 3.74171 21.2982 5.29311 16.7459 8.21199C12.1937 11.1309 8.57457 15.2947 6.31817 20.2091C4.06176 25.1235 3.26284 30.5821 4.01624 35.937C4.76964 41.2919 7.04373 46.3182 10.5685 50.4193L7.02721 53.9606C6.82345 54.1574 6.66093 54.3928 6.54913 54.6531C6.43732 54.9134 6.37847 55.1933 6.37601 55.4766C6.37355 55.7598 6.42752 56.0407 6.53479 56.3029C6.64205 56.5651 6.80046 56.8033 7.00077 57.0036C7.20107 57.2039 7.43926 57.3623 7.70144 57.4696C7.96362 57.5768 8.24454 57.6308 8.5278 57.6283C8.81106 57.6259 9.091 57.567 9.35127 57.4552C9.61155 57.3434 9.84695 57.1809 10.0437 56.9771L13.5851 53.4358C18.9888 58.0842 25.9496 60.5186 33.0726 60.2514C40.1955 59.9841 46.9543 57.0348 51.9946 51.9946C57.0348 46.9544 59.984 40.1956 60.2513 33.0726C60.5186 25.9497 58.0841 18.9889 53.4357 13.5851L56.9771 10.0438C57.1754 9.84546 57.3328 9.60999 57.4401 9.35083C57.5475 9.09168 57.6027 8.81392 57.6027 8.53341C57.6027 8.2529 57.5475 7.97514 57.4401 7.71599C57.3328 7.45683 57.1754 7.22136 56.9771 7.02301C56.7787 6.82466 56.5433 6.66732 56.2841 6.55998C56.0249 6.45263 55.7472 6.39738 55.4667 6.39738C55.1862 6.39738 54.9084 6.45263 54.6493 6.55998C54.3901 6.66732 54.1546 6.82466 53.9563 7.02301L50.4149 10.5643C45.2941 6.15473 38.7578 3.73464 32 3.74621V3.74194ZM47.5392 13.4443C42.901 9.55588 36.9744 7.5462 30.9277 7.81151C24.881 8.07683 19.1531 10.5979 14.8733 14.8777C10.5936 19.1574 8.0725 24.8853 7.80718 30.932C7.54186 36.9787 9.55155 42.9054 13.44 47.5435L47.5392 13.4443V13.4443ZM16.4608 50.5558C21.099 54.4443 27.0257 56.454 33.0724 56.1886C39.119 55.9233 44.8469 53.4022 49.1267 49.1225C53.4065 44.8427 55.9275 39.1148 56.1928 33.0682C56.4582 27.0215 54.4485 21.0948 50.56 16.4566L16.4565 50.5601L16.4608 50.5558Z" fill="#D3D5DA"/>
</svg>
